# xmcd
#
# Track frame offsets:
#	150
#	23373
#	53656
#	71429
#	96111
#	109542
#	129834
#	152286
#	173194
#	200364
#	225151
#	243570
#	278626
#
# Disc length: 4084 seconds
#
# Revision: 0
# Processed by: cddbd v1.5.2PL0 Copyright (c) Steve Scherf et al.
# Submitted via: audiograbber 1.83.01
#
DISCID=8f0ff20d
DTITLE=Stefan Diestelmann - My Lights
DYEAR=1994
DGENRE=Blues
TTITLE0=Another Man Done Gone
TTITLE1=Blues And Trouble
TTITLE2=Gadd Away (Instrumental)
TTITLE3=Der Alte und die Kneipe
TTITLE4=Tantchen's Boogie
TTITLE5=Erste Begegnung (Instrumental)
TTITLE6=Kneipenleben
TTITLE7=Zwiegespräch
TTITLE8=Rückblick
TTITLE9=Auf ein Wort noch
TTITLE10=Latin Moves (Instrumental)
TTITLE11=John Henry
TTITLE12=Reichsbahn-Blues - Partout (Instrumental)
EXTD=
EXTT0=
EXTT1=
EXTT2=
EXTT3=
EXTT4=
EXTT5=
EXTT6=
EXTT7=
EXTT8=
EXTT9=
EXTT10=
EXTT11=
EXTT12=
PLAYORDER=
